<?xml version="1.0" standalone="no"?>
<!DOCTYPE svg PUBLIC "-//W3C//DTD SVG 20010904//EN"
 "http://www.w3.org/TR/2001/REC-SVG-20010904/DTD/svg10.dtd">
<svg version="1.0" xmlns="http://www.w3.org/2000/svg"
 width="700.000000pt" height="700.000000pt" viewBox="0 0 700.000000 700.000000"
 preserveAspectRatio="xMidYMid meet">
<metadata>
Created by potrace 1.14, written by Peter Selinger 2001-2017
</metadata>
<g transform="translate(0.000000,700.000000) scale(0.100000,-0.100000)"
fill="#000000" stroke="none">
<path d="M3094 6989 c-134 -15 -436 -75 -549 -109 -38 -12 -90 -28 -115 -35
-59 -17 -138 -47 -308 -114 -113 -45 -355 -173 -502 -266 -121 -76 -328 -231
-440 -329 -49 -44 -247 -242 -297 -297 -148 -165 -330 -415 -418 -574 -15 -27
-31 -54 -35 -60 -14 -18 -131 -256 -162 -329 -38 -93 -96 -249 -113 -306 -7
-25 -23 -76 -35 -115 -25 -86 -72 -302 -97 -450 -27 -161 -27 -847 0 -1010 23
-141 71 -360 98 -450 11 -38 27 -90 34 -115 17 -57 75 -213 113 -306 31 -73
148 -311 162 -329 4 -5 20 -32 35 -60 84 -153 253 -387 405 -560 42 -48 262
-268 310 -311 76 -66 201 -164 296 -231 103 -73 259 -173 270 -173 3 0 18 -9
32 -19 35 -24 273 -144 343 -171 173 -69 250 -98 309 -115 25 -7 77 -23 115
-35 39 -11 102 -28 140 -36 39 -8 88 -19 110 -24 223 -51 274 -55 705 -55 431
0 482 4 705 55 22 5 72 16 110 24 39 8 102 25 140 36 39 12 90 28 115 35 177
52 558 219 652 286 14 11 29 19 32 19 25 0 323 206 476 329 89 72 326 300 400
386 303 350 512 699 667 1115 19 52 41 115 48 140 7 25 23 77 35 115 19 63 36
136 61 250 51 242 54 272 54 705 0 433 -3 463 -54 705 -25 114 -42 187 -61
250 -12 39 -28 90 -35 115 -54 185 -184 479 -298 675 -116 202 -278 425 -430
594 -50 55 -248 253 -297 297 -115 101 -315 250 -450 336 -236 149 -571 306
-800 373 -25 7 -83 25 -130 38 -47 14 -101 28 -120 32 -19 3 -64 13 -99 22
-201 47 -293 55 -676 58 -203 2 -406 -1 -451 -6z m-266 -1796 c15 -10 172
-163 350 -340 178 -178 331 -323 340 -323 9 0 164 147 343 326 179 179 336
331 350 338 56 28 111 -44 75 -99 -9 -13 -140 -148 -291 -299 -151 -151 -275
-278 -275 -283 1 -31 16 -32 580 -35 487 -3 568 -5 590 -18 35 -22 100 -82
100 -92 0 -5 11 -34 25 -64 l25 -55 0 -919 c0 -570 -4 -927 -10 -938 -5 -9
-21 -42 -35 -74 -24 -52 -78 -108 -105 -108 -6 0 -30 -9 -52 -20 -41 -20 -62
-20 -1323 -20 -1095 0 -1286 2 -1311 14 -16 8 -40 20 -54 26 -78 34 -120 86
-139 170 -3 14 -6 446 -6 960 0 882 1 938 18 980 19 46 92 130 113 130 7 0 14
6 16 13 4 9 132 13 579 17 553 5 574 6 577 24 3 14 -74 97 -282 305 -163 163
-286 295 -287 306 -5 54 8 75 59 94 1 1 15 -7 30 -16z"/>
<path d="M2210 4335 c-13 -8 -32 -24 -42 -37 -17 -22 -18 -78 -18 -963 l0
-940 31 -38 30 -37 1303 0 1302 0 32 33 32 33 0 949 c0 891 -1 949 -17 968
-45 49 16 47 -1350 46 -1051 -1 -1282 -3 -1303 -14z m2441 -232 c12 -13 14
-146 17 -753 2 -471 -1 -747 -7 -764 -21 -53 12 -51 -1163 -46 l-1090 5 -24
28 -24 28 0 728 c0 642 2 732 16 759 l15 32 1124 0 c1032 0 1124 -1 1136 -17z"/>
<path d="M2506 3964 c-3 -9 -6 -294 -6 -634 0 -514 2 -619 14 -629 10 -9 272
-11 1007 -11 546 0 994 2 996 4 2 2 5 862 3 1264 l0 22 -1004 0 c-906 0 -1004
-2 -1010 -16z m961 -274 c58 -38 107 -70 110 -70 4 0 72 -49 83 -60 8 -8 44
-29 65 -39 12 -5 27 -16 34 -25 7 -9 19 -16 27 -16 7 0 17 -6 21 -12 10 -17
69 -58 82 -58 14 0 61 -63 61 -81 0 -16 -55 -74 -88 -93 -11 -6 -58 -36 -104
-66 -46 -30 -90 -59 -99 -65 -9 -5 -42 -28 -74 -50 -32 -22 -65 -44 -73 -50
-9 -5 -36 -24 -62 -41 -25 -17 -60 -38 -78 -47 -31 -15 -36 -15 -68 0 l-34 17
0 390 c0 386 0 390 22 413 12 13 32 23 46 23 13 0 71 -31 129 -70z"/>
<path d="M3412 3338 l3 -193 33 2 c18 0 42 9 53 19 22 20 56 41 82 50 9 3 17
10 17 15 0 5 12 15 28 24 76 43 87 53 89 76 3 20 -10 32 -74 74 -43 28 -85 53
-93 56 -9 4 -22 14 -29 23 -7 9 -19 16 -26 16 -7 0 -18 7 -25 15 -7 8 -23 15
-36 15 l-24 0 2 -192z"/>
</g>
</svg>
